<svg xmlns="http://www.w3.org/2000/svg" viewBox="0 0 200 100.03"><defs><style>.cls-1{fill:#40b9c1;}.cls-2{fill:#41b9c1;}.cls-3{fill:#fff;}.cls-4{fill:none;}</style></defs><title>banner_landing</title><g id="Capa_1" data-name="Capa 1"><path class="cls-1" d="M127.46-.11" transform="translate(0 0.03)"/><path class="cls-1" d="M120.31,0a40.88,40.88,0,0,0-5.71,18.65A40.12,40.12,0,0,0,154.69,60.7c6.81,0,23.51-3.36,29.65-9.76,4.79-5.88,2.47-17.75-2.36-19.54A29.55,29.55,0,0,1,145,47.78l45-27.29c.19-.11.21-.2.17-.27,2.42-.74,4.38-1.77,4.38-4.22a40.46,40.46,0,0,0-5.37-16c-2.08.06-4,0-6,0C181,0,179-.07,176.69,0A29.81,29.81,0,0,1,184,15.4L150.67,34l19.4-34h-12c-1.93.05-3.75,0-5.66,0L131.17,14.47a2.66,2.66,0,0,0-.77,3.6l1,1.58a2.67,2.67,0,0,0,3.75.83l22.66-15a.89.89,0,0,1,1.28,1.16L139.61,43a8.62,8.62,0,0,0-.71,1.83,29.59,29.59,0,0,1-13.82-25A30.25,30.25,0,0,1,132.67,0" transform="translate(0 0.03)"/><path class="cls-2" d="M31.75,20.74a1.71,1.71,0,0,1,.5,1.24,3,3,0,0,1-.71,1.8L17.66,41.52H29a2.17,2.17,0,0,1,1.47.44A1.58,1.58,0,0,1,31,43.21c0,1.31-.74,2-2.23,2H13.7a1.69,1.69,0,0,1-1.85-1.76,2.71,2.71,0,0,1,.71-1.79l13.9-17.73H15.54a2.2,2.2,0,0,1-1.47-.43,1.48,1.48,0,0,1-.49-1.23,1.92,1.92,0,0,1,.54-1.51,2.54,2.54,0,0,1,1.68-.49H30.42A1.81,1.81,0,0,1,31.75,20.74Z" transform="translate(0 0.03)"/><path class="cls-2" d="M34.64,44.84a1.84,1.84,0,0,1-.55-1.61l1.13-13.67A2,2,0,0,1,36,28a2.61,2.61,0,0,1,1.62-.49,2.24,2.24,0,0,1,1.54.49,1.78,1.78,0,0,1,.49,1.54L38.5,43.23a2.07,2.07,0,0,1-.74,1.59,2.46,2.46,0,0,1-1.59.53A2.28,2.28,0,0,1,34.64,44.84Zm1.47-21.1a2.22,2.22,0,0,1-.7-1.72,2.11,2.11,0,0,1,.7-1.7,2.7,2.7,0,0,1,1.9-.64,2.73,2.73,0,0,1,1.89.64A2.13,2.13,0,0,1,40.62,22a2.18,2.18,0,0,1-.71,1.71,2.65,2.65,0,0,1-1.9.66,2.74,2.74,0,0,1-1.9-.65Z" transform="translate(0 0.03)"/><path class="cls-2" d="M55.37,27.86a1.46,1.46,0,0,1,.49,1.19,2.24,2.24,0,0,1-.49,1.59,2.8,2.8,0,0,1-1.73.67l-1,.1a5.55,5.55,0,0,0-3.35,1.29,4.78,4.78,0,0,0-1.24,3.13l-.59,7.4a2.13,2.13,0,0,1-.75,1.59,2.52,2.52,0,0,1-1.59.53,2.21,2.21,0,0,1-1.55-.53,1.83,1.83,0,0,1-.53-1.59l1.13-13.7A2,2,0,0,1,44.94,28a2.56,2.56,0,0,1,1.58-.49A1.93,1.93,0,0,1,48,28a1.73,1.73,0,0,1,.43,1.47l-.07,1a6.33,6.33,0,0,1,2.33-2,7.68,7.68,0,0,1,3.07-.83l.39,0A1.64,1.64,0,0,1,55.37,27.86Z" transform="translate(0 0.03)"/><path class="cls-2" d="M70.12,29.05a6.22,6.22,0,0,1,1.73,4.8,9.28,9.28,0,0,1,0,1l-.67,8.45a2.19,2.19,0,0,1-.66,1.52,2.26,2.26,0,0,1-1.57.53,1.85,1.85,0,0,1-2-1.69,1.82,1.82,0,0,1,0-.4l0-.67a5.12,5.12,0,0,1-2,2.09,5.71,5.71,0,0,1-2.91.74,7.16,7.16,0,0,1-3.06-.65A5.36,5.36,0,0,1,56.92,43a4.46,4.46,0,0,1-.77-2.6,4.69,4.69,0,0,1,1-3.16,6,6,0,0,1,3.23-1.73,26.29,26.29,0,0,1,5.94-.55h1.27l0-.66a3.23,3.23,0,0,0-.67-2.62,3.45,3.45,0,0,0-2.58-.85,10.62,10.62,0,0,0-4.76,1.38,2.11,2.11,0,0,1-.89.21,1.41,1.41,0,0,1-1-.45,1.51,1.51,0,0,1-.43-1.08,1.82,1.82,0,0,1,.29-.94,2.27,2.27,0,0,1,.81-.79,11.25,11.25,0,0,1,3-1.24,13.57,13.57,0,0,1,3.53-.46A7.53,7.53,0,0,1,70.12,29.05Zm-4,12a4.75,4.75,0,0,0,1.28-3l.08-.77h-1a21,21,0,0,0-3.54.24,3.55,3.55,0,0,0-1.86.83,2.19,2.19,0,0,0-.57,1.58,2.11,2.11,0,0,0,.76,1.69,3.05,3.05,0,0,0,2,.64A3.81,3.81,0,0,0,66.08,41.08Z" transform="translate(0 0.03)"/><path class="cls-1" d="M9.78,53a.35.35,0,0,1-.09-.29L10,49.16a.39.39,0,0,1,.41-.37.33.33,0,0,1,.36.38l-.27,3.53a.52.52,0,0,1-.13.28.41.41,0,0,1-.29.1A.35.35,0,0,1,9.78,53Z" transform="translate(0 0.03)"/><path class="cls-1" d="M13.92,50.31a1.08,1.08,0,0,1,.26.78.87.87,0,0,1,0,.18l-.12,1.45a.31.31,0,0,1-.12.26.36.36,0,0,1-.27.1.33.33,0,0,1-.27-.1.32.32,0,0,1-.09-.26l.12-1.42c0-.45-.14-.67-.52-.67a.69.69,0,0,0-.52.2.92.92,0,0,0-.22.55l-.11,1.34a.38.38,0,0,1-.12.26.37.37,0,0,1-.28.1.33.33,0,0,1-.26-.1.32.32,0,0,1-.09-.26l.19-2.33a.39.39,0,0,1,.12-.25.45.45,0,0,1,.28-.09.36.36,0,0,1,.26.09.28.28,0,0,1,.07.24v.12a1,1,0,0,1,.4-.34,1.32,1.32,0,0,1,.57-.12A1,1,0,0,1,13.92,50.31Z" transform="translate(0 0.03)"/><path class="cls-1" d="M15.84,51.93a.31.31,0,0,0,0,.11.53.53,0,0,0,.11.36.38.38,0,0,0,.32.13h.25a.15.15,0,0,1,.13.07.3.3,0,0,1,.05.18.29.29,0,0,1-.13.26,1.25,1.25,0,0,1-.47.07,1.05,1.05,0,0,1-.75-.26,1,1,0,0,1-.26-.73.76.76,0,0,1,0-.17l.09-1.26h-.29a.43.43,0,0,1-.24-.06.29.29,0,0,1-.08-.21c0-.19.12-.29.35-.29h.31l0-.55a.4.4,0,0,1,.12-.26.43.43,0,0,1,.28-.09.37.37,0,0,1,.27.09.33.33,0,0,1,.08.26l0,.55h.5a.32.32,0,0,1,.23.07.23.23,0,0,1,.09.19c0,.21-.12.3-.35.3h-.52Z" transform="translate(0 0.03)"/><path class="cls-1" d="M19.64,51.64a.21.21,0,0,1-.17.07H17.68a.87.87,0,0,0,.23.6.78.78,0,0,0,.58.21,1.46,1.46,0,0,0,.38-.05,1.5,1.5,0,0,0,.34-.16.56.56,0,0,1,.15,0,.19.19,0,0,1,.16.08.28.28,0,0,1,.06.18.36.36,0,0,1-.15.29A1.57,1.57,0,0,1,19,53a2,2,0,0,1-.55.07,1.77,1.77,0,0,1-.79-.17,1.28,1.28,0,0,1-.52-.51,1.49,1.49,0,0,1-.18-.75,1.92,1.92,0,0,1,.18-.84A1.44,1.44,0,0,1,18.43,50a1.23,1.23,0,0,1,.95.36,1.54,1.54,0,0,1,.33,1.05A.24.24,0,0,1,19.64,51.64Zm-1.93-.33h1.37a.8.8,0,0,0-.16-.55.56.56,0,0,0-.46-.19C18,50.57,17.79,50.81,17.71,51.31Z" transform="translate(0 0.03)"/><path class="cls-1" d="M22.3,50.11a.25.25,0,0,1,.08.2.41.41,0,0,1-.08.27.46.46,0,0,1-.3.11l-.16,0a.94.94,0,0,0-.57.22.83.83,0,0,0-.21.53L21,52.72a.35.35,0,0,1-.13.27.4.4,0,0,1-.27.09A.39.39,0,0,1,20.3,53a.3.3,0,0,1-.09-.27l.19-2.33a.33.33,0,0,1,.13-.25.44.44,0,0,1,.27-.09.36.36,0,0,1,.24.08.33.33,0,0,1,.08.25l0,.16a1.09,1.09,0,0,1,.4-.34,1.3,1.3,0,0,1,.52-.14h.07A.24.24,0,0,1,22.3,50.11Z" transform="translate(0 0.03)"/><path class="cls-1" d="M24.81,50.31a1.07,1.07,0,0,1,.29.81.87.87,0,0,1,0,.18L25,52.73a.42.42,0,0,1-.11.26.4.4,0,0,1-.27.09.32.32,0,0,1-.25-.1.31.31,0,0,1-.08-.25v-.12a.84.84,0,0,1-.34.36,1,1,0,0,1-.49.12,1.1,1.1,0,0,1-.52-.11.88.88,0,0,1-.36-.3.77.77,0,0,1-.13-.45.75.75,0,0,1,.17-.53,1,1,0,0,1,.55-.3,4.43,4.43,0,0,1,1-.09h.22V51.2a.48.48,0,0,0-.56-.59,1.93,1.93,0,0,0-.81.23.28.28,0,0,1-.15,0,.25.25,0,0,1-.18-.08.29.29,0,0,1-.07-.18.37.37,0,0,1,.05-.16.35.35,0,0,1,.14-.13,1.7,1.7,0,0,1,.51-.21,2,2,0,0,1,.6-.08A1.3,1.3,0,0,1,24.81,50.31Zm-.69,2a.8.8,0,0,0,.22-.51v-.13h-.17a3.18,3.18,0,0,0-.6,0,.6.6,0,0,0-.32.14.38.38,0,0,0-.09.27.33.33,0,0,0,.13.28.47.47,0,0,0,.34.11A.62.62,0,0,0,24.12,52.35Z" transform="translate(0 0.03)"/><path class="cls-1" d="M26.37,52.92a1.28,1.28,0,0,1-.52-.51,1.49,1.49,0,0,1-.18-.75,1.84,1.84,0,0,1,.19-.86,1.35,1.35,0,0,1,.55-.56,1.67,1.67,0,0,1,.85-.2,1.9,1.9,0,0,1,.54.07,1.16,1.16,0,0,1,.42.18.28.28,0,0,1,.13.26.32.32,0,0,1-.07.22.19.19,0,0,1-.18.1l-.13,0a1.2,1.2,0,0,0-.68-.2.74.74,0,0,0-.62.27,1.14,1.14,0,0,0-.23.75.93.93,0,0,0,.2.63.74.74,0,0,0,.57.22,1,1,0,0,0,.32,0,2.3,2.3,0,0,0,.32-.15.31.31,0,0,1,.15,0,.19.19,0,0,1,.16.07.31.31,0,0,1,.06.19.28.28,0,0,1,0,.15.41.41,0,0,1-.1.13,2.06,2.06,0,0,1-.42.21,1.79,1.79,0,0,1-.51.07A1.73,1.73,0,0,1,26.37,52.92Z" transform="translate(0 0.03)"/><path class="cls-1" d="M29.71,51.93a.31.31,0,0,0,0,.11.53.53,0,0,0,.11.36.39.39,0,0,0,.32.13h.25a.14.14,0,0,1,.13.07.3.3,0,0,1,0,.18.27.27,0,0,1-.13.26,1.19,1.19,0,0,1-.46.07,1,1,0,0,1-.75-.26A1,1,0,0,1,29,52.1a.76.76,0,0,1,0-.17l.09-1.26h-.29a.43.43,0,0,1-.24-.06.29.29,0,0,1-.08-.21c0-.19.12-.29.36-.29h.3l0-.55a.4.4,0,0,1,.12-.26.46.46,0,0,1,.29-.09.36.36,0,0,1,.26.09.33.33,0,0,1,.08.26l0,.55h.5a.34.34,0,0,1,.24.07.26.26,0,0,1,.08.19c0,.21-.12.3-.35.3H29.8Z" transform="translate(0 0.03)"/><path class="cls-1" d="M31,53a.33.33,0,0,1-.08-.27l.19-2.32a.36.36,0,0,1,.12-.26.45.45,0,0,1,.28-.09.37.37,0,0,1,.26.09.28.28,0,0,1,.09.26l-.19,2.32a.35.35,0,0,1-.13.27.44.44,0,0,1-.27.09A.4.4,0,0,1,31,53Zm.26-3.58a.41.41,0,0,1-.12-.3.36.36,0,0,1,.12-.28.52.52,0,0,1,.64,0,.37.37,0,0,1,.13.28.41.41,0,0,1-.12.3.49.49,0,0,1-.33.11A.48.48,0,0,1,31.24,49.41Z" transform="translate(0 0.03)"/><path class="cls-1" d="M34.75,50.11a.41.41,0,0,1,.18,0,.36.36,0,0,1,.24.09.27.27,0,0,1,.06.37L34,52.81a.48.48,0,0,1-.19.21.55.55,0,0,1-.25.07.44.44,0,0,1-.25-.08.42.42,0,0,1-.16-.21l-.84-2.29a.43.43,0,0,1,0-.11.3.3,0,0,1,.13-.24.45.45,0,0,1,.27-.1.28.28,0,0,1,.18.06.25.25,0,0,1,.12.16l.65,1.89.95-1.9A.42.42,0,0,1,34.75,50.11Z" transform="translate(0 0.03)"/><path class="cls-1" d="M38.15,51.64a.24.24,0,0,1-.18.07H36.19a.82.82,0,0,0,.22.6.79.79,0,0,0,.59.21,1.52,1.52,0,0,0,.38-.05,2.06,2.06,0,0,0,.34-.16.42.42,0,0,1,.15,0,.19.19,0,0,1,.16.08.35.35,0,0,1,0,.18.36.36,0,0,1-.15.29,1.57,1.57,0,0,1-.43.2,2,2,0,0,1-.55.07,1.8,1.8,0,0,1-.79-.17,1.34,1.34,0,0,1-.52-.51,1.49,1.49,0,0,1-.18-.75,1.79,1.79,0,0,1,.19-.84,1.31,1.31,0,0,1,.52-.57,1.41,1.41,0,0,1,.77-.21,1.21,1.21,0,0,1,.94.36,1.54,1.54,0,0,1,.34,1.05A.27.27,0,0,1,38.15,51.64Zm-1.94-.33h1.37a.8.8,0,0,0-.16-.55.55.55,0,0,0-.45-.19C36.54,50.57,36.29,50.81,36.21,51.31Z" transform="translate(0 0.03)"/><path class="cls-1" d="M40.49,53a.35.35,0,0,1-.07-.27l.28-3.52a.42.42,0,0,1,.12-.27.41.41,0,0,1,.29-.1.33.33,0,0,1,.36.38l-.26,3.24h1.68a.33.33,0,0,1,.25.08.26.26,0,0,1,.09.21c0,.23-.13.34-.38.34H40.76A.37.37,0,0,1,40.49,53Z" transform="translate(0 0.03)"/><path class="cls-1" d="M43.76,53a.3.3,0,0,1-.09-.27l.19-2.32a.33.33,0,0,1,.13-.26.42.42,0,0,1,.27-.09.36.36,0,0,1,.26.09.28.28,0,0,1,.09.26l-.19,2.32a.35.35,0,0,1-.13.27.4.4,0,0,1-.27.09A.39.39,0,0,1,43.76,53ZM44,49.41a.41.41,0,0,1-.12-.3.36.36,0,0,1,.12-.28.44.44,0,0,1,.33-.11.45.45,0,0,1,.32.11.36.36,0,0,1,.12.28.41.41,0,0,1-.12.3.48.48,0,0,1-.32.11A.49.49,0,0,1,44,49.41Z" transform="translate(0 0.03)"/><path class="cls-1" d="M47.53,50.11a.35.35,0,0,1,.18,0,.35.35,0,0,1,.23.09.29.29,0,0,1,.11.22.42.42,0,0,1,0,.15l-1.2,2.29a.58.58,0,0,1-.2.21.55.55,0,0,1-.25.07.46.46,0,0,1-.25-.08A.42.42,0,0,1,46,52.8l-.84-2.29a.41.41,0,0,1,0-.11.31.31,0,0,1,.12-.24.45.45,0,0,1,.27-.1.33.33,0,0,1,.19.06.27.27,0,0,1,.11.16l.65,1.89,1-1.9A.44.44,0,0,1,47.53,50.11Z" transform="translate(0 0.03)"/><path class="cls-1" d="M50.92,51.64a.24.24,0,0,1-.18.07H49a.83.83,0,0,0,.23.6.76.76,0,0,0,.58.21,1.46,1.46,0,0,0,.38-.05,1.5,1.5,0,0,0,.34-.16.42.42,0,0,1,.15,0,.19.19,0,0,1,.16.08.28.28,0,0,1,.06.18.36.36,0,0,1-.15.29,1.57,1.57,0,0,1-.43.2,2,2,0,0,1-.56.07,1.73,1.73,0,0,1-.78-.17,1.22,1.22,0,0,1-.52-.51,1.49,1.49,0,0,1-.19-.75,1.92,1.92,0,0,1,.19-.84A1.41,1.41,0,0,1,49.71,50a1.24,1.24,0,0,1,.95.36A1.54,1.54,0,0,1,51,51.45.24.24,0,0,1,50.92,51.64ZM49,51.31h1.37a.75.75,0,0,0-.15-.55.56.56,0,0,0-.46-.19C49.32,50.57,49.06,50.81,49,51.31Z" transform="translate(0 0.03)"/><path class="cls-1" d="M54.09,52.86a1.65,1.65,0,0,1-.66-.7,2.29,2.29,0,0,1-.24-1.08,2.77,2.77,0,0,1,.26-1.22,2,2,0,0,1,.75-.81,2.25,2.25,0,0,1,1.14-.29,2.65,2.65,0,0,1,.77.11,2,2,0,0,1,.58.29.35.35,0,0,1,.17.31.29.29,0,0,1-.08.22.24.24,0,0,1-.21.1.28.28,0,0,1-.19-.07,1.64,1.64,0,0,0-1-.33,1.26,1.26,0,0,0-1,.45A2,2,0,0,0,54,51.09a1.5,1.5,0,0,0,.31,1,1.07,1.07,0,0,0,.87.36,1.82,1.82,0,0,0,1-.33.38.38,0,0,1,.19-.06.26.26,0,0,1,.19.08.38.38,0,0,1,.07.21.35.35,0,0,1-.16.3,1.86,1.86,0,0,1-.58.31,2.43,2.43,0,0,1-.77.12A2.12,2.12,0,0,1,54.09,52.86Z" transform="translate(0 0.03)"/><path class="cls-1" d="M57.27,53a.3.3,0,0,1-.09-.27l.29-3.59a.35.35,0,0,1,.13-.26.38.38,0,0,1,.26-.08.4.4,0,0,1,.27.08.29.29,0,0,1,.09.26l-.29,3.59a.38.38,0,0,1-.12.27.44.44,0,0,1-.27.09A.4.4,0,0,1,57.27,53Z" transform="translate(0 0.03)"/><path class="cls-1" d="M61,50.31a1,1,0,0,1,.3.81.87.87,0,0,1,0,.18l-.11,1.43a.42.42,0,0,1-.11.26.4.4,0,0,1-.27.09.32.32,0,0,1-.25-.1.31.31,0,0,1-.08-.25v-.12a.91.91,0,0,1-.34.36,1,1,0,0,1-.49.12,1.1,1.1,0,0,1-.52-.11.82.82,0,0,1-.36-.3.77.77,0,0,1-.13-.45.75.75,0,0,1,.17-.53,1,1,0,0,1,.54-.3,4.59,4.59,0,0,1,1-.09h.22V51.2a.57.57,0,0,0-.11-.45.61.61,0,0,0-.44-.14,1.93,1.93,0,0,0-.81.23.28.28,0,0,1-.15,0,.25.25,0,0,1-.18-.08.24.24,0,0,1-.07-.18.37.37,0,0,1,.05-.16.35.35,0,0,1,.14-.13,1.7,1.7,0,0,1,.51-.21,2,2,0,0,1,.6-.08A1.25,1.25,0,0,1,61,50.31Zm-.68,2a.8.8,0,0,0,.22-.51v-.13h-.17a3.12,3.12,0,0,0-.6,0,.6.6,0,0,0-.32.14.38.38,0,0,0-.09.27.33.33,0,0,0,.13.28.47.47,0,0,0,.34.11A.62.62,0,0,0,60.33,52.35Z" transform="translate(0 0.03)"/><path class="cls-1" d="M62.46,53a1.92,1.92,0,0,1-.48-.19.32.32,0,0,1-.2-.3.27.27,0,0,1,.07-.2.23.23,0,0,1,.18-.09.37.37,0,0,1,.16,0,1.69,1.69,0,0,0,.88.24c.36,0,.54-.1.54-.31a.25.25,0,0,0-.15-.23,2,2,0,0,0-.47-.17,3.63,3.63,0,0,1-.51-.18.89.89,0,0,1-.35-.26.64.64,0,0,1-.14-.45.79.79,0,0,1,.36-.65,1.53,1.53,0,0,1,.93-.25,1.71,1.71,0,0,1,.49.07,1.16,1.16,0,0,1,.42.18.31.31,0,0,1,.16.28.29.29,0,0,1-.07.2.21.21,0,0,1-.17.08A.37.37,0,0,1,64,50.8a1.47,1.47,0,0,0-.73-.22.74.74,0,0,0-.4.09.27.27,0,0,0,0,.48,2.72,2.72,0,0,0,.46.17,5.33,5.33,0,0,1,.52.17,1,1,0,0,1,.34.26.63.63,0,0,1,.15.44.77.77,0,0,1-.35.66,1.59,1.59,0,0,1-.94.24A2.51,2.51,0,0,1,62.46,53Z" transform="translate(0 0.03)"/><path class="cls-1" d="M65.37,53a1.92,1.92,0,0,1-.48-.19.32.32,0,0,1-.2-.3.27.27,0,0,1,.07-.2.23.23,0,0,1,.18-.09.37.37,0,0,1,.16,0,1.69,1.69,0,0,0,.88.24c.36,0,.54-.1.54-.31a.25.25,0,0,0-.15-.23,2,2,0,0,0-.47-.17,3.63,3.63,0,0,1-.51-.18.89.89,0,0,1-.35-.26.64.64,0,0,1-.14-.45.79.79,0,0,1,.36-.65,1.53,1.53,0,0,1,.93-.25,1.71,1.71,0,0,1,.49.07,1.16,1.16,0,0,1,.42.18.31.31,0,0,1,.16.28.29.29,0,0,1-.07.2.21.21,0,0,1-.17.08.37.37,0,0,1-.16-.05,1.47,1.47,0,0,0-.73-.22.74.74,0,0,0-.4.09.27.27,0,0,0,0,.48,2.72,2.72,0,0,0,.46.17,5.33,5.33,0,0,1,.52.17,1,1,0,0,1,.34.26.63.63,0,0,1,.15.44.77.77,0,0,1-.35.66,1.59,1.59,0,0,1-.94.24A2.51,2.51,0,0,1,65.37,53Z" transform="translate(0 0.03)"/><path class="cls-1" d="M70.38,51.64a.21.21,0,0,1-.17.07H68.43a.82.82,0,0,0,.22.6.78.78,0,0,0,.58.21,1.54,1.54,0,0,0,.39-.05,2.06,2.06,0,0,0,.34-.16.43.43,0,0,1,.14,0,.18.18,0,0,1,.16.08.28.28,0,0,1,.06.18.36.36,0,0,1-.15.29,1.57,1.57,0,0,1-.43.2,2,2,0,0,1-.55.07,1.8,1.8,0,0,1-.79-.17,1.28,1.28,0,0,1-.52-.51,1.49,1.49,0,0,1-.18-.75,1.79,1.79,0,0,1,.19-.84,1.31,1.31,0,0,1,.52-.57,1.41,1.41,0,0,1,.77-.21,1.22,1.22,0,0,1,.94.36,1.54,1.54,0,0,1,.33,1.05A.24.24,0,0,1,70.38,51.64Zm-1.93-.33h1.37a.8.8,0,0,0-.16-.55.55.55,0,0,0-.45-.19C68.78,50.57,68.53,50.81,68.45,51.31Z" transform="translate(0 0.03)"/><path class="cls-1" d="M71.46,53a2.09,2.09,0,0,1-.48-.19.33.33,0,0,1-.2-.3.32.32,0,0,1,.07-.2.23.23,0,0,1,.18-.09.37.37,0,0,1,.16,0,1.74,1.74,0,0,0,.88.24c.37,0,.55-.1.55-.31a.25.25,0,0,0-.15-.23,2.18,2.18,0,0,0-.47-.17,4.38,4.38,0,0,1-.52-.18.86.86,0,0,1-.34-.26.6.6,0,0,1-.14-.45.79.79,0,0,1,.36-.65,1.52,1.52,0,0,1,.92-.25,1.77,1.77,0,0,1,.5.07,1,1,0,0,1,.41.18.32.32,0,0,1,.17.28.35.35,0,0,1-.07.2.25.25,0,0,1-.17.08A.37.37,0,0,1,73,50.8a1.5,1.5,0,0,0-.73-.22.78.78,0,0,0-.41.09.28.28,0,0,0-.14.24.26.26,0,0,0,.15.24,2.9,2.9,0,0,0,.47.17l.52.17a1.06,1.06,0,0,1,.34.26.68.68,0,0,1,.14.44.76.76,0,0,1-.34.66,1.63,1.63,0,0,1-.95.24A2.64,2.64,0,0,1,71.46,53Z" transform="translate(0 0.03)"/><path class="cls-1" d="M11.85,83.07c7.59-11,29.26-15.37,60-16C145.34,65.55,129.47,3.64,200,0V100H0" transform="translate(0 0.03)"/></g><g id="Capa_2" data-name="Capa 2"><path class="cls-3" d="M103.74-7.67" transform="translate(0 0.03)"/><line class="cls-4" x1="179.7" y1="2.98" x2="190.63" y2="0.91"/><path class="cls-3" d="M189.72,1.06a40.87,40.87,0,0,1,4.87,15c0,2.44-2,3.48-4.37,4.22,0,.07,0,.15-.18.27l-45,27.29a29.55,29.55,0,0,0,37-16.39c4.83,1.79,7.15,13.67,2.36,19.55-6.14,6.4-22.84,9.75-29.65,9.75a39.31,39.31,0,0,1-29.94-13.4l7.7-8a25.69,25.69,0,0,0,6.45,5.52,7.51,7.51,0,0,1,.71-1.83l13.84-25.9,11.31-7.8L150.71,34.08,184,15.48a29.62,29.62,0,0,0-4.78-12.22c.33-.11,10.21-2.08,10.53-2.22" transform="translate(0 0.03)"/></g></svg>