<svg id="Capa_1" data-name="Capa 1" xmlns="http://www.w3.org/2000/svg" viewBox="0 0 204.42 135.36"><defs><style>.cls-1{fill:#40b9c1;}.cls-2{fill:#f6f6f6;}</style></defs><title>banner_landing</title><path class="cls-1" d="M202.32,26.5c0-10.16-29.54,2.83-89.32,32.89C88.92,71.5,76.17,71.63,62.56,71.59,27,71.5,0,70.75,0,85.57c0,6.09-3.93,44.5,0,46.41,7.23,3.52,194.85,4.17,200,0C204,128.74,202.32,34.81,202.32,26.5Z" transform="translate(1.74 0.49)"/><path class="cls-1" d="M202.32,26.5c0-10.16-29.54,2.83-89.32,32.89C88.92,71.5,76.17,71.63,62.56,71.59,27,71.5,0,70.75,0,85.57c0,6.09-3.93,44.5,0,46.41,7.23,3.52,194.85,4.17,200,0C204,128.74,202.32,34.81,202.32,26.5Z" transform="translate(1.74 0.49)"/><path class="cls-1" d="M202.32,26.5c0-10.16-29.54,2.83-89.32,32.89C88.92,71.5,76.17,71.63,62.56,71.59,27,71.5,0,70.75,0,85.57c0,6.09-3.93,44.5,0,46.41,7.23,3.52,194.85,4.17,200,0C204,128.74,202.32,34.81,202.32,26.5Z" transform="translate(1.74 0.49)"/><path class="cls-1" d="M202.32,26.5c0-10.16-29.54,2.83-89.32,32.89C88.92,71.5,76.17,71.63,62.56,71.59,27,71.5,0,70.75,0,85.57c0,6.09-3.93,44.5,0,46.41,7.23,3.52,194.85,4.17,200,0C204,128.74,202.32,34.81,202.32,26.5Z" transform="translate(1.74 0.49)"/><path class="cls-1" d="M202.32,26.5c0-10.16-29.54,2.83-89.32,32.89C88.92,71.5,76.17,71.63,62.56,71.59,27,71.5,0,70.75,0,85.57c0,6.09-3.93,44.5,0,46.41,7.23,3.52,194.85,4.17,200,0C204,128.74,202.32,34.81,202.32,26.5Z" transform="translate(1.74 0.49)"/><path class="cls-1" d="M202.32,26.5c0-10.16-29.54,2.83-89.32,32.89C88.92,71.5,76.17,71.63,62.56,71.59,27,71.5,0,70.75,0,85.57c0,6.09-3.93,44.5,0,46.41,7.23,3.52,194.85,4.17,200,0C204,128.74,202.32,34.81,202.32,26.5Z" transform="translate(1.74 0.49)"/><path class="cls-1" d="M202.32,26.5c0-10.16-29.54,2.83-89.32,32.89C88.92,71.5,76.17,71.63,62.56,71.59,27,71.5,0,70.75,0,85.57c0,6.09-3.93,44.5,0,46.41,7.23,3.52,194.85,4.17,200,0C204,128.74,202.32,34.81,202.32,26.5Z" transform="translate(1.74 0.49)"/><path class="cls-1" d="M202.32,26.5c0-10.16-29.54,2.83-89.32,32.89C88.92,71.5,76.17,71.63,62.56,71.59,27,71.5,0,70.75,0,85.57c0,6.09-3.93,44.5,0,46.41,7.23,3.52,194.85,4.17,200,0C204,128.74,202.32,34.81,202.32,26.5Z" transform="translate(1.74 0.49)"/><path class="cls-1" d="M199.92,37.94a43.35,43.35,0,1,0-43,48.27c7.35,0,25.39-3.62,32-10.54,5.17-6.35,2.66-19.17-2.55-21.11a31.91,31.91,0,0,1-39.9,17.7L195,42.78c.2-.12.23-.21.18-.29C197.81,41.7,199.92,40.58,199.92,37.94Zm-75,4.1a32,32,0,0,1,42.54-30.22l.11,0a7,7,0,0,0-1.13.65L131.46,36.28a2.89,2.89,0,0,0-.83,3.89l1.05,1.71a2.88,2.88,0,0,0,4,.89L160.2,26.54a1,1,0,0,1,1.38,1.25l-21,39.31a8.52,8.52,0,0,0-.77,2A31.93,31.93,0,0,1,124.89,42Zm51.05-25.7a31.9,31.9,0,0,1,12.58,20.94l-36,20.09Z" transform="translate(1.74 0.49)"/><line class="cls-1" x1="128.73" y1="53.93" x2="117.99" y2="58.5"/><path class="cls-2" d="M199.92,37.94c-2.56-22.63-3.35-12.45-30.37-1.09-19.47,8.18-24,3.54-43.16,14.87-5.23,3.1-11.1,3.48-9.11,8.8,6.14,16.47,21,25.69,39.59,25.69,7.35,0,25.39-3.62,32-10.54,5.17-6.35,2.66-19.17-2.55-21.11a31.91,31.91,0,0,1-39.9,17.7L195,42.78c.2-.12.23-.21.18-.29C197.81,41.7,199.92,40.58,199.92,37.94Zm-75,4.1a32,32,0,0,1,42.54-30.22l.11,0a7,7,0,0,0-1.13.65L131.46,36.28a2.89,2.89,0,0,0-.83,3.89l1.05,1.71a2.88,2.88,0,0,0,4,.89L160.2,26.54a1,1,0,0,1,1.38,1.25l-21,39.31a8.52,8.52,0,0,0-.77,2A31.93,31.93,0,0,1,124.89,42Zm51.05-25.7a31.9,31.9,0,0,1,12.58,20.94l-36,20.09Z" transform="translate(1.74 0.49)"/></svg>