<svg id="Capa_1" data-name="Capa 1" xmlns="http://www.w3.org/2000/svg" viewBox="0 0 122.25 52.49"><defs><style>.cls-1{fill:#f3f9fb;}</style></defs><title>NameWContornosWhite</title><path class="cls-1" d="M42.12,12.17a3.42,3.42,0,0,1,1,2.52,6.05,6.05,0,0,1-1.44,3.67L13.39,54.51H36.58a4.41,4.41,0,0,1,3,.9,3.25,3.25,0,0,1,1,2.55q0,4-4.54,4H5.33a3.63,3.63,0,0,1-2.77-1,3.56,3.56,0,0,1-1-2.59A5.57,5.57,0,0,1,3,54.72L31.32,18.58H9.07a4.52,4.52,0,0,1-3-.87,3.13,3.13,0,0,1-1-2.52,3.84,3.84,0,0,1,1.12-3.06,5.13,5.13,0,0,1,3.42-1h29.8A3.7,3.7,0,0,1,42.12,12.17Z" transform="translate(-1.58 -10.01)"/><path class="cls-1" d="M48,61.27A3.74,3.74,0,0,1,46.87,58l2.31-27.86A4,4,0,0,1,50.69,27,5.26,5.26,0,0,1,54,26,4.54,4.54,0,0,1,57.13,27a3.61,3.61,0,0,1,1,3.13L55.87,58a4.25,4.25,0,0,1-1.51,3.24,5.06,5.06,0,0,1-3.24,1.08A4.62,4.62,0,0,1,48,61.27Zm3-43a4.48,4.48,0,0,1-1.44-3.49A4.37,4.37,0,0,1,51,11.31,5.55,5.55,0,0,1,54.86,10a5.62,5.62,0,0,1,3.86,1.3,4.36,4.36,0,0,1,1.47,3.45,4.52,4.52,0,0,1-1.44,3.49,5.49,5.49,0,0,1-3.89,1.34A5.48,5.48,0,0,1,51,18.25Z" transform="translate(-1.58 -10.01)"/><path class="cls-1" d="M90.25,26.68a3,3,0,0,1,1,2.41,4.56,4.56,0,0,1-1,3.24,5.57,5.57,0,0,1-3.52,1.37l-2,.21q-4.68.51-6.84,2.63a9.8,9.8,0,0,0-2.52,6.37L74.16,58a4.28,4.28,0,0,1-1.51,3.24,5.1,5.1,0,0,1-3.24,1.08,4.6,4.6,0,0,1-3.17-1.08A3.72,3.72,0,0,1,65.16,58l2.3-27.93A4,4,0,0,1,69,27,5.21,5.21,0,0,1,72.21,26a4,4,0,0,1,2.92,1A3.52,3.52,0,0,1,76,30l-.14,1.95a12.8,12.8,0,0,1,4.75-4.14,15.63,15.63,0,0,1,6.26-1.69l.8-.08A3.34,3.34,0,0,1,90.25,26.68Z" transform="translate(-1.58 -10.01)"/><path class="cls-1" d="M120.31,29.09q3.52,3.24,3.53,9.79c0,.91,0,1.61-.07,2.09L122.4,58.18a4.44,4.44,0,0,1-1.33,3.09,4.6,4.6,0,0,1-3.21,1.08,3.74,3.74,0,0,1-4-4.24l.07-1.37a10.45,10.45,0,0,1-4,4.25A11.56,11.56,0,0,1,104,62.5a14.31,14.31,0,0,1-6.23-1.33,10.81,10.81,0,0,1-4.36-3.68,9.25,9.25,0,0,1-1.58-5.29,9.59,9.59,0,0,1,2-6.44c1.37-1.61,3.57-2.78,6.59-3.53a52.74,52.74,0,0,1,12.1-1.12h2.59l.07-1.36c.19-2.4-.26-4.18-1.37-5.33s-2.85-1.73-5.25-1.73a21.78,21.78,0,0,0-9.72,2.81,4.3,4.3,0,0,1-1.8.43A2.85,2.85,0,0,1,95,35a3,3,0,0,1-.87-2.2,3.64,3.64,0,0,1,.58-1.9,4.58,4.58,0,0,1,1.65-1.62,22.78,22.78,0,0,1,6.12-2.52,27.79,27.79,0,0,1,7.2-.94Q116.79,25.85,120.31,29.09Zm-8.24,24.52a9.58,9.58,0,0,0,2.62-6.16l.15-1.58h-2a41,41,0,0,0-7.23.5,7,7,0,0,0-3.78,1.69,4.4,4.4,0,0,0-1.16,3.21,4.27,4.27,0,0,0,1.55,3.45,6.2,6.2,0,0,0,4.14,1.3A7.7,7.7,0,0,0,112.07,53.61Z" transform="translate(-1.58 -10.01)"/></svg>