<svg xmlns="http://www.w3.org/2000/svg" viewBox="0 0 86.4 86.7"><defs><style>.cls-1{fill:#40b9c1;}</style></defs><title>LogoVectores</title><g id="Capa_2" data-name="Capa 2"><path class="cls-1" d="M90.92,41A43.34,43.34,0,1,0,47.87,89.27c7.35,0,25.39-3.62,32-10.54,5.17-6.34,2.66-19.17-2.55-21.11a31.91,31.91,0,0,1-39.9,17.7L86,45.85c.2-.13.23-.22.18-.3C88.81,44.76,90.92,43.64,90.92,41Zm-75,4.1A32,32,0,0,1,58.43,14.88l.11,0a7,7,0,0,0-1.13.65L22.46,39.34a2.89,2.89,0,0,0-.83,3.89l1.05,1.71a2.87,2.87,0,0,0,4.05.89L51.2,29.6a1,1,0,0,1,1.38,1.26l-21,39.3a8.52,8.52,0,0,0-.77,2A31.93,31.93,0,0,1,15.89,45.1ZM66.94,19.4A31.93,31.93,0,0,1,79.52,40.34l-36,20.09Z" transform="translate(-4.52 -2.57)"/></g></svg>